<svg xmlns="http://www.w3.org/2000/svg" viewBox="0 0 96 96">
  <defs>
    <linearGradient id="woodP" x1="0" y1="0" x2="0" y2="1">
      <stop offset="0" stop-color="#6b4a2e"/>
      <stop offset="0.5" stop-color="#4a3120"/>
      <stop offset="1" stop-color="#2c1c12"/>
    </linearGradient>
    <linearGradient id="brassP" x1="0" y1="0" x2="1" y2="1">
      <stop offset="0" stop-color="#f0d78a"/>
      <stop offset="0.5" stop-color="#c9a24a"/>
      <stop offset="1" stop-color="#8a6420"/>
    </linearGradient>
  </defs>

  <rect x="4" y="4" width="88" height="88" fill="none" stroke="url(#woodP)" stroke-width="13"/>
  <rect x="10" y="10" width="76" height="76" fill="none" stroke="url(#brassP)" stroke-width="2.2" opacity="0.85"/>
  <rect x="14" y="14" width="68" height="68" fill="none" stroke="#1a1109" stroke-width="1.4"/>

  <g stroke="#1a1109" stroke-width="1.6">
    <circle cx="16" cy="16" r="5.4" fill="url(#brassP)"/>
    <circle cx="80" cy="16" r="5.4" fill="url(#brassP)"/>
    <circle cx="16" cy="80" r="5.4" fill="url(#brassP)"/>
    <circle cx="80" cy="80" r="5.4" fill="url(#brassP)"/>
  </g>
  <g fill="#fff3cf" opacity="0.55">
    <circle cx="14" cy="14" r="1.4"/>
    <circle cx="78" cy="14" r="1.4"/>
    <circle cx="14" cy="78" r="1.4"/>
    <circle cx="78" cy="78" r="1.4"/>
  </g>

  <!-- scrollwork flourishes in each corner -->
  <g fill="none" stroke="url(#brassP)" stroke-width="2" stroke-linecap="round">
    <path d="M24 10 Q34 10 34 20 Q34 26 28 26"/>
    <path d="M72 10 Q62 10 62 20 Q62 26 68 26"/>
    <path d="M24 86 Q34 86 34 76 Q34 70 28 70"/>
    <path d="M72 86 Q62 86 62 76 Q62 70 68 70"/>
  </g>
</svg>
